<?xml version="1.0" encoding="UTF-8" standalone="no" ?>
<!DOCTYPE svg PUBLIC "-//W3C//DTD SVG 1.1//EN" "http://www.w3.org/Graphics/SVG/1.1/DTD/svg11.dtd">
<svg xmlns="http://www.w3.org/2000/svg" xmlns:xlink="http://www.w3.org/1999/xlink" version="1.1" width="1080" height="1080" viewBox="0 0 1080 1080" xml:space="preserve">
<desc>Created with Fabric.js 5.2.4</desc>
<defs>
</defs>
<g transform="matrix(0 0 0 0 0 0)" id="45dafbf1-5b74-4d52-939f-369361553fc3"  >
</g>
<g transform="matrix(1 0 0 1 540 540)" id="86457d33-ac82-45af-b9be-b3aa05f5dae4"  >
<rect style="stroke: none; stroke-width: 1; stroke-dasharray: none; stroke-linecap: butt; stroke-dashoffset: 0; stroke-linejoin: miter; stroke-miterlimit: 4; fill: rgb(255,255,255); fill-rule: nonzero; opacity: 1; visibility: hidden;" vector-effect="non-scaling-stroke"  x="-540" y="-540" rx="0" ry="0" width="1080" height="1080" />
</g>
<g transform="matrix(1 0 0 1 644.95 578.26)"  >
<g style="" vector-effect="non-scaling-stroke"   >
		<g transform="matrix(1 0 0 1 0 0)"  >
<rect style="stroke: none; stroke-width: 1; stroke-dasharray: none; stroke-linecap: butt; stroke-dashoffset: 0; stroke-linejoin: miter; stroke-miterlimit: 4; fill: rgb(255,255,255); fill-rule: nonzero; opacity: 1; visibility: hidden;" vector-effect="non-scaling-stroke"  x="-540" y="-540" rx="0" ry="0" width="1080" height="1080" />
</g>
		<g transform="matrix(1 0 0 1 -106.07 -22.79)"  >
<path style="stroke: none; stroke-width: 1; stroke-dasharray: none; stroke-linecap: butt; stroke-dashoffset: 0; stroke-linejoin: miter; stroke-miterlimit: 4; fill: rgb(0,0,0); fill-rule: evenodd; opacity: 1;" vector-effect="non-scaling-stroke"  transform=" translate(-350.5, -359.5)" d="M 313.67 293.225 C 313.148 299.14 311.973 304.836 310.146 310.316 L 287.047 380.896 L 340.946 380.896 L 317.977 310.838 C 316.498 306.402 315.454 300.531 314.845 293.225 Z M 438.924 258.392 L 481.991 258.392 L 481.991 460.478 L 438.924 460.478 Z M 290.048 258.392 L 340.685 258.392 L 413.246 460.478 L 366.264 460.478 L 351.125 414.164 L 277.65 414.164 L 262.773 460.478 L 216.051 460.478 Z M 597.403 255 C 612.215 255 625.241 256.443 636.481 259.33 L 645.136 262.068 L 628.524 294.082 L 625.037 292.769 C 617.098 290.464 608.583 289.312 599.491 289.312 C 588.876 289.312 580.393 291.247 574.042 295.117 C 567.691 298.987 564.515 304.184 564.515 310.707 C 564.515 315.926 566.69 320.731 571.04 325.123 C 575.391 329.516 586.135 335.452 603.275 342.931 C 623.373 351.542 637.185 360.631 644.711 370.198 C 652.237 379.765 656 391.159 656 404.379 C 656 423.774 649.127 438.56 635.38 448.736 C 621.633 458.912 602.101 464 576.783 464 C 553.64 464 534.673 460.26 519.882 452.78 L 519.882 449.842 L 535.453 419.832 L 545.95 424.764 C 555.195 428.134 564.994 429.819 575.347 429.819 C 587.093 429.819 595.924 427.797 601.84 423.753 C 607.756 419.708 610.714 414.511 610.714 408.162 C 610.714 402.683 608.365 397.508 603.667 392.637 C 598.969 387.767 586.571 381.157 566.473 372.807 C 534.89 359.413 519.099 339.931 519.099 314.36 C 519.099 295.574 526.255 280.984 540.567 270.59 C 554.879 260.197 573.825 255 597.403 255 Z M 152.276 255 C 172.026 255 188.557 257.566 201.869 262.697 L 201.869 304.315 C 188.209 296.313 172.722 292.312 155.408 292.312 C 135.658 292.312 119.867 298.618 108.035 311.229 C 96.202 323.84 90.2857 340.322 90.2857 360.674 C 90.2857 380.504 95.8975 396.464 107.121 408.554 C 118.345 420.643 133.527 426.688 152.668 426.688 C 170.678 426.688 187.078 422.339 201.869 413.642 L 201.869 453.172 C 187.165 460.391 167.98 464 144.315 464 C 113.864 464 89.6984 454.889 71.819 436.668 C 53.9397 418.447 45 394.159 45 363.805 C 45 331.886 54.9837 305.772 74.9512 285.463 C 94.9186 265.154 120.694 255 152.276 255 Z" stroke-linecap="round" />
</g>
		<g transform="matrix(1 0 0 1 135.43 -41.79)"  >
<rect style="stroke: none; stroke-width: 1; stroke-dasharray: none; stroke-linecap: butt; stroke-dashoffset: 0; stroke-linejoin: miter; stroke-miterlimit: 4; fill: rgb(0,0,0); fill-rule: nonzero; opacity: 1;" vector-effect="non-scaling-stroke"  x="-25" y="-5.5" rx="0" ry="0" width="50" height="11" />
</g>
		<g transform="matrix(1 0 0 1 110.43 -58.79)"  >
<rect style="stroke: none; stroke-width: 1; stroke-dasharray: none; stroke-linecap: butt; stroke-dashoffset: 0; stroke-linejoin: miter; stroke-miterlimit: 4; fill: rgb(0,0,0); fill-rule: nonzero; opacity: 1;" vector-effect="non-scaling-stroke"  x="-42" y="-5.5" rx="0" ry="0" width="84" height="11" />
</g>
		<g transform="matrix(1 0 0 1 108.93 -74.79)"  >
<rect style="stroke: none; stroke-width: 1; stroke-dasharray: none; stroke-linecap: butt; stroke-dashoffset: 0; stroke-linejoin: miter; stroke-miterlimit: 4; fill: rgb(0,0,0); fill-rule: nonzero; opacity: 1;" vector-effect="non-scaling-stroke"  x="-30.5" y="-5.5" rx="0" ry="0" width="61" height="11" />
</g>
		<g transform="matrix(1 0 0 1 161.43 -61.79)"  >
<rect style="stroke: none; stroke-width: 1; stroke-dasharray: none; stroke-linecap: butt; stroke-dashoffset: 0; stroke-linejoin: miter; stroke-miterlimit: 4; fill: rgb(255,192,0); fill-rule: nonzero; opacity: 1;" vector-effect="non-scaling-stroke"  x="-6" y="-5.5" rx="0" ry="0" width="12" height="11" />
</g>
		<g transform="matrix(1 0 0 1 168.43 -41.79)"  >
<rect style="stroke: none; stroke-width: 1; stroke-dasharray: none; stroke-linecap: butt; stroke-dashoffset: 0; stroke-linejoin: miter; stroke-miterlimit: 4; fill: rgb(165,165,165); fill-rule: nonzero; opacity: 1;" vector-effect="non-scaling-stroke"  x="-6" y="-5.5" rx="0" ry="0" width="12" height="11" />
</g>
		<g transform="matrix(1 0 0 1 149.43 -75.79)"  >
<rect style="stroke: none; stroke-width: 1; stroke-dasharray: none; stroke-linecap: butt; stroke-dashoffset: 0; stroke-linejoin: miter; stroke-miterlimit: 4; fill: rgb(112,173,71); fill-rule: nonzero; opacity: 1;" vector-effect="non-scaling-stroke"  x="-6" y="-5.5" rx="0" ry="0" width="12" height="11" />
</g>
		<g transform="matrix(1 0 0 1 162.93 -81.29)"  >
<rect style="stroke: none; stroke-width: 1; stroke-dasharray: none; stroke-linecap: butt; stroke-dashoffset: 0; stroke-linejoin: miter; stroke-miterlimit: 4; fill: rgb(91,155,213); fill-rule: nonzero; opacity: 1;" vector-effect="non-scaling-stroke"  x="-4.5" y="-4" rx="0" ry="0" width="9" height="8" />
</g>
		<g transform="matrix(1 0 0 1 160.43 -102.29)"  >
<rect style="stroke: none; stroke-width: 1; stroke-dasharray: none; stroke-linecap: butt; stroke-dashoffset: 0; stroke-linejoin: miter; stroke-miterlimit: 4; fill: rgb(255,255,255); fill-rule: nonzero; opacity: 1;" vector-effect="non-scaling-stroke"  x="-4" y="-4" rx="0" ry="0" width="8" height="8" />
</g>
		<g transform="matrix(1 0 0 1 152.43 -109.79)"  >
<rect style="stroke: none; stroke-width: 1; stroke-dasharray: none; stroke-linecap: butt; stroke-dashoffset: 0; stroke-linejoin: miter; stroke-miterlimit: 4; fill: rgb(255,255,255); fill-rule: nonzero; opacity: 1;" vector-effect="non-scaling-stroke"  x="-6" y="-5.5" rx="0" ry="0" width="12" height="11" />
</g>
		<g transform="matrix(1 0 0 1 171.93 -69.79)"  >
<rect style="stroke: none; stroke-width: 1; stroke-dasharray: none; stroke-linecap: butt; stroke-dashoffset: 0; stroke-linejoin: miter; stroke-miterlimit: 4; fill: rgb(204,0,0); fill-rule: nonzero; opacity: 1;" vector-effect="non-scaling-stroke"  x="-2.5" y="-2.5" rx="0" ry="0" width="5" height="5" />
</g>
		<g transform="matrix(1 0 0 1 169.93 -111.79)"  >
<rect style="stroke: none; stroke-width: 1; stroke-dasharray: none; stroke-linecap: butt; stroke-dashoffset: 0; stroke-linejoin: miter; stroke-miterlimit: 4; fill: rgb(255,255,255); fill-rule: nonzero; opacity: 1;" vector-effect="non-scaling-stroke"  x="-2.5" y="-2.5" rx="0" ry="0" width="5" height="5" />
</g>
		<g transform="matrix(1 0 0 1 57.11 14.34)"  >
<path style="stroke: none; stroke-width: 1; stroke-dasharray: none; stroke-linecap: butt; stroke-dashoffset: 0; stroke-linejoin: miter; stroke-miterlimit: 4; fill: rgb(0,0,0); fill-rule: evenodd; opacity: 1;" vector-effect="non-scaling-stroke"  transform=" translate(-513.68, -396.64)" d="M 509.761 392.722 C 511.923 390.555 515.432 390.551 517.599 392.712 C 519.766 394.874 519.77 398.383 517.608 400.55 C 515.447 402.717 511.938 402.721 509.771 400.559 C 507.604 398.398 507.6 394.889 509.761 392.722 Z" stroke-linecap="round" />
</g>
		<g transform="matrix(1 0 0 1 71.93 28.34)"  >
<path style="stroke: none; stroke-width: 1; stroke-dasharray: none; stroke-linecap: butt; stroke-dashoffset: 0; stroke-linejoin: miter; stroke-miterlimit: 4; fill: rgb(0,0,0); fill-rule: evenodd; opacity: 1;" vector-effect="non-scaling-stroke"  transform=" translate(-528.5, -410.64)" d="M 522.967 410.382 C 523.107 407.324 525.7 404.959 528.757 405.1 C 531.815 405.24 534.18 407.833 534.039 410.891 C 533.899 413.948 531.306 416.313 528.248 416.172 C 525.191 416.032 522.826 413.439 522.967 410.382 Z" stroke-linecap="round" />
</g>
		<g transform="matrix(1 0 0 1 64.75 21.98)"  >
<path style="stroke: rgb(0,0,0); stroke-width: 2; stroke-dasharray: none; stroke-linecap: butt; stroke-dashoffset: 0; stroke-linejoin: miter; stroke-miterlimit: 8; fill: none; fill-rule: evenodd; opacity: 1;" vector-effect="non-scaling-stroke"  transform=" translate(-521.32, -404.27)" d="M 528.75 411.638 L 513.887 396.899" stroke-linecap="round" />
</g>
		<g transform="matrix(1 0 0 1 76.96 9.25)"  >
<path style="stroke: none; stroke-width: 1; stroke-dasharray: none; stroke-linecap: butt; stroke-dashoffset: 0; stroke-linejoin: miter; stroke-miterlimit: 4; fill: rgb(0,0,0); fill-rule: evenodd; opacity: 1;" vector-effect="non-scaling-stroke"  transform=" translate(-533.54, -391.54)" d="M 528.391 389.489 C 529.525 386.646 532.749 385.261 535.592 386.395 C 538.435 387.529 539.82 390.754 538.686 393.596 C 537.552 396.439 534.328 397.825 531.485 396.691 C 528.642 395.556 527.257 392.332 528.391 389.489 Z" stroke-linecap="round" />
</g>
		<g transform="matrix(1 0 0 1 74.12 19.48)"  >
<path style="stroke: rgb(0,0,0); stroke-width: 2; stroke-dasharray: none; stroke-linecap: butt; stroke-dashoffset: 0; stroke-linejoin: miter; stroke-miterlimit: 8; fill: none; fill-rule: evenodd; opacity: 1;" vector-effect="non-scaling-stroke"  transform=" translate(-530.69, -401.77)" d="M 528.149 411.458 L 533.236 392.09" stroke-linecap="round" />
</g>
		<g transform="matrix(1 0 0 1 114.42 20.84)"  >
<path style="stroke: none; stroke-width: 1; stroke-dasharray: none; stroke-linecap: butt; stroke-dashoffset: 0; stroke-linejoin: miter; stroke-miterlimit: 4; fill: rgb(0,0,0); fill-rule: evenodd; opacity: 1;" vector-effect="non-scaling-stroke"  transform=" translate(-570.99, -403.12)" d="M 576.512 402.652 C 576.773 405.702 574.512 408.386 571.462 408.646 C 568.412 408.907 565.729 406.646 565.468 403.596 C 565.207 400.547 567.468 397.863 570.518 397.602 C 573.568 397.342 576.251 399.603 576.512 402.652 Z" stroke-linecap="round" />
</g>
		<g transform="matrix(1 0 0 1 94.16 23.12)"  >
<path style="stroke: none; stroke-width: 1; stroke-dasharray: none; stroke-linecap: butt; stroke-dashoffset: 0; stroke-linejoin: miter; stroke-miterlimit: 4; fill: rgb(0,0,0); fill-rule: evenodd; opacity: 1;" vector-effect="non-scaling-stroke"  transform=" translate(-550.73, -405.41)" d="M 554.499 401.347 C 556.744 403.427 556.878 406.933 554.798 409.179 C 552.718 411.424 549.211 411.558 546.966 409.478 C 544.721 407.397 544.587 403.891 546.667 401.646 C 548.747 399.4 552.254 399.266 554.499 401.347 Z" stroke-linecap="round" />
</g>
		<g transform="matrix(1 0 0 1 103.67 21.74)"  >
<path style="stroke: rgb(0,0,0); stroke-width: 2; stroke-dasharray: none; stroke-linecap: butt; stroke-dashoffset: 0; stroke-linejoin: miter; stroke-miterlimit: 8; fill: none; fill-rule: evenodd; opacity: 1;" vector-effect="non-scaling-stroke"  transform=" translate(-560.23, -404.03)" d="M 549.808 404.954 L 570.658 403.109" stroke-linecap="round" />
</g>
</g>
</g>
</svg>